<?xml version="1.0" standalone="no"?>
<!DOCTYPE svg PUBLIC "-//W3C//DTD SVG 20010904//EN"
 "http://www.w3.org/TR/2001/REC-SVG-20010904/DTD/svg10.dtd">
<svg version="1.0" xmlns="http://www.w3.org/2000/svg"
 width="64.000000pt" height="64.000000pt" viewBox="0 0 64.000000 64.000000"
 preserveAspectRatio="xMidYMid meet">

<g transform="translate(0.000000,64.000000) scale(0.100000,-0.100000)"
fill="#000000" stroke="none">
<path d="M137 611 c31 -28 31 -30 34 -131 2 -87 0 -103 -14 -112 -12 -6 -17
-22 -17 -49 0 -26 -5 -42 -15 -45 -8 -4 -15 -17 -15 -31 0 -13 7 -31 15 -39 8
-9 15 -26 15 -40 0 -13 5 -24 10 -24 6 0 10 -7 10 -15 0 -9 10 -15 26 -15 16
0 37 -13 58 -35 43 -48 65 -40 68 24 l1 46 6 -50 c5 -37 11 -51 24 -53 12 -3
20 4 24 17 3 12 12 21 19 21 8 0 14 7 14 15 0 9 10 15 26 15 30 0 63 35 64 66
0 12 7 27 15 34 20 17 19 36 -5 60 -12 12 -20 33 -20 55 0 22 -6 38 -15 41
-21 9 -18 51 5 71 16 14 20 30 20 78 0 56 -3 64 -33 93 l-33 32 -159 0 -159 0
31 -29z m186 -126 c55 -48 48 -69 -24 -73 -47 -2 -58 0 -63 15 -5 12 0 23 13
35 12 9 21 26 21 37 0 28 8 26 53 -14z"/>
<path d="M80 90 c0 -5 7 -10 15 -10 8 0 15 5 15 10 0 6 -7 10 -15 10 -8 0 -15
-4 -15 -10z"/>
<path d="M510 90 c0 -5 9 -10 20 -10 11 0 20 5 20 10 0 6 -9 10 -20 10 -11 0
-20 -4 -20 -10z"/>
<path d="M120 55 c0 -17 18 -19 38 -6 11 7 10 10 -3 15 -26 10 -35 7 -35 -9z"/>
<path d="M462 61 c-11 -7 -10 -10 3 -15 26 -10 35 -7 35 9 0 17 -18 19 -38 6z"/>
<path d="M190 16 c0 -9 5 -16 10 -16 6 0 10 4 10 9 0 6 -4 13 -10 16 -5 3 -10
-1 -10 -9z"/>
<path d="M420 16 c0 -9 5 -16 10 -16 6 0 10 4 10 9 0 6 -4 13 -10 16 -5 3 -10
-1 -10 -9z"/>
</g>
</svg>
